/* XPM */
static char *maximize_pressed_png[] = {
/* columns rows colors chars-per-pixel */
"34 36 14 1 ",
"  c #1B1F20",
". c #1D2122",
"X c #1D2123",
"o c #222728",
"O c #242829",
"+ c #24282A",
"@ c #25292B",
"# c #333739",
"$ c #34383A",
"% c #BFC0BE",
"& c #C0C0BF",
"* c #C0C1C0",
"= c #EEEEEC",
"- c None",
/* pixels */
"----------------------------------",
"-o.                            .O-",
"oX+@@@@@@@@@@@@@@@@@@@@@@@@@@@@+XO",
".+@@@@@@@@@@@@@@@@@@@@@@@@@@@@@@+.",
" @@@@@@@@@@@@@@@@@@@@@@@@@@@@@@@@ ",
" @@@@@@@@@@@@@@@@@@@@@@@@@@@@@@@@ ",
" @@@@@@@@@@@@@@@@@@@@@@@@@@@@@@@@ ",
" @@@@@@@@@@@@@@@@@@@@@@@@@@@@@@@@ ",
" @@@@@@@@@@@@@@@@@@@@@@@@@@@@@@@@ ",
" @@@@@@@@@@@@@@@@@@@@@@@@@@@@@@@@ ",
" @@@@@@@@@@@@@@@@@@@@@@@@@@@@@@@@ ",
" @@@@@@@@@@@@@@@@@@@@@@@@@@@@@@@@ ",
" @@@@@@@@@@@@@@@@@@@@@@@@@@@@@@@@ ",
" @@@@@@@@@@@@@@@@@@@@@@@@@@@@@@@@ ",
" @@@@@@@@@@@@*======&@@@@@@@@@@@@ ",
" @@@@@@@@@@@@========@@@@@@@@@@@@ ",
" @@@@@@@@@@@@==#@@$==@@@@@@@@@@@@ ",
" @@@@@@@@@@@@==@@@@==@@@@@@@@@@@@ ",
" @@@@@@@@@@@@==@@@@==@@@@@@@@@@@@ ",
" @@@@@@@@@@@@==$@@$==@@@@@@@@@@@@ ",
" @@@@@@@@@@@@========@@@@@@@@@@@@ ",
" @@@@@@@@@@@@&======%@@@@@@@@@@@@ ",
" @@@@@@@@@@@@@@@@@@@@@@@@@@@@@@@@ ",
" @@@@@@@@@@@@@@@@@@@@@@@@@@@@@@@@ ",
" @@@@@@@@@@@@@@@@@@@@@@@@@@@@@@@@ ",
" @@@@@@@@@@@@@@@@@@@@@@@@@@@@@@@@ ",
" @@@@@@@@@@@@@@@@@@@@@@@@@@@@@@@@ ",
" @@@@@@@@@@@@@@@@@@@@@@@@@@@@@@@@ ",
" @@@@@@@@@@@@@@@@@@@@@@@@@@@@@@@@ ",
" @@@@@@@@@@@@@@@@@@@@@@@@@@@@@@@@ ",
" @@@@@@@@@@@@@@@@@@@@@@@@@@@@@@@@ ",
" @@@@@@@@@@@@@@@@@@@@@@@@@@@@@@@@ ",
".+@@@@@@@@@@@@@@@@@@@@@@@@@@@@@@+.",
"OX+@@@@@@@@@@@@@@@@@@@@@@@@@@@@+XO",
"-O.                            .O-",
"----------------------------------"
};
