/* XPM */
static char *stick_inactive[] = {
/* columns rows colors chars-per-pixel */
"34 36 8 1 ",
"  c #33393B",
". c #434949",
"X c #484E4E",
"o c #545958",
"O c #6B6F6F",
"+ c #8B8E8D",
"@ c #939695",
"# c None",
/* pixels */
"##################################",
"                                  ",
"                                  ",
"                                  ",
"                                  ",
"                                  ",
"                                  ",
"                                  ",
"                                  ",
"                                  ",
"                                  ",
"                                  ",
"              .O++O.              ",
"             o@@@@@@o             ",
"            .@@X  X@@.            ",
"            O@X    X@O            ",
"            +@      @+            ",
"            +@      @+            ",
"            O@X    X@O            ",
"            .@@X  X@@.            ",
"             o@@@@@@o             ",
"              .O++O.              ",
"                                  ",
"                                  ",
"                                  ",
"                                  ",
"                                  ",
"                                  ",
"                                  ",
"                                  ",
"                                  ",
"                                  ",
"                                  ",
"                                  ",
"                                  ",
"##################################"
};
