/* XPM */
static char *top_left_active[] = {
/* columns rows colors chars-per-pixel */
"7 48 23 1 ",
"  c #1B1E1E",
". c #1C1F1F",
"X c #1D1F1F",
"o c #1E2020",
"O c #1F2020",
"+ c #1F2121",
"@ c #202323",
"# c #262A2C",
"$ c #292D2F",
"% c #2A2E30",
"& c #2B2F31",
"* c #2C3133",
"= c #2F3333",
"- c #2D3234",
"; c #2E3335",
": c #2F3536",
"> c #303537",
", c #323739",
"< c #32383A",
"1 c #34393B",
"2 c #373B3D",
"3 c #363C3E",
"4 c None",
/* pixels */
"4444@O.",
"444+@:2",
"44X=3,;",
"4o=1-**",
"4@<****",
"O%-****",
".>*****",
" ;*****",
".******",
".******",
".******",
".******",
".******",
".******",
".******",
".******",
".******",
".******",
".******",
".******",
".******",
".******",
".******",
".******",
".******",
".******",
".******",
".******",
".******",
".******",
".******",
".******",
".******",
".******",
".******",
".******",
".******",
".******",
".******",
".******",
".******",
".******",
".******",
".******",
".&&&&&&",
".$$$$$$",
".######",
"......."
};
