/* XPM */
static char *menu_active_png[] = {
/* columns rows colors chars-per-pixel */
"34 36 4 1 ",
"  c #080809",
". c #2C3133",
"X c #EEEEEC",
"o c None",
/* pixels */
"oooooooooooooooooooooooooooooooooo",
"..................................",
"..................................",
"..................................",
"..................................",
"..................................",
"..................................",
"..................................",
"..................................",
"..................................",
"..................................",
".............        .............",
".............XXXXXXXX.............",
".............XXXXXXXX.............",
"..................................",
".............        .............",
".............XXXXXXXX.............",
".............XXXXXXXX.............",
"..................................",
".............        .............",
".............XXXXXXXX.............",
".............XXXXXXXX.............",
"..................................",
"..................................",
"..................................",
"..................................",
"..................................",
"..................................",
"..................................",
"..................................",
"..................................",
"..................................",
"..................................",
"oooooooooooooooooooooooooooooooooo",
"oooooooooooooooooooooooooooooooooo",
"oooooooooooooooooooooooooooooooooo"
};
