/* XPM */
static char *maximize_prelight_png[] = {
/* columns rows colors chars-per-pixel */
"34 36 47 1 ",
"  c #0A0C0C",
". c #0B0C0C",
"X c #0B0C0D",
"o c #0F1111",
"O c #131617",
"+ c #141617",
"@ c #1A1C1D",
"# c #1B1D1D",
"$ c #1C1E1F",
"% c #1B1F20",
"& c #1C2021",
"* c #1D2122",
"= c #222728",
"- c #242829",
"; c #262A2C",
": c #282C2E",
"> c #292D2F",
", c #2A2E30",
"< c #2B2F31",
"1 c #2C3032",
"2 c #2C3133",
"3 c #2C3234",
"4 c #2D3234",
"5 c #2D3335",
"6 c #2E3436",
"7 c #2F3537",
"8 c #303638",
"9 c #303739",
"0 c #313739",
"q c #32383A",
"w c #32393B",
"e c #333A3C",
"r c #343B3D",
"t c #353C3E",
"y c #363D3F",
"u c #373E40",
"i c #3A4042",
"p c #3C4345",
"a c #3E4345",
"s c #3E4446",
"d c #3F4547",
"f c #BABAB8",
"g c #BABBB9",
"h c #C1C2C1",
"j c #C2C3C1",
"k c #EEEEEC",
"l c None",
/* pixels */
"llllllllllllllllllllllllllllllllll",
"l-&%%%%%%%%%%%%%%%%%%%%%%%%%%%%&-l",
"-=pddddddddddddddddddddddddddddp=-",
"&iyttttttttttttttttttttttttttttyu&",
"%trrrrrrrrrrrrrrrrrrrrrrrrrrrrrrt%",
"%rrrrrrrrrrrrrrrrrrrrrrrrrrrrrrrr%",
"%eeeeeeeeeeeeeeeeeeeeeeeeeeeeeeee%",
"%eeeeeeeeeeeeeeeeeeeeeeeeeeeeeeee%",
"%wwwwwwwwwwwwwwwwwwwwwwwwwwwwwwww%",
"%wwwwwwwwwwwwwwwwwwwwwwwwwwwwwwww%",
"%qqqqqqqqqqqqqqqqqqqqqqqqqqqqqqqq%",
"%qqqqqqqqqqqqqqqqqqqqqqqqqqqqqqqq%",
"%00000000000000000000000000000000%",
"%000000000000OXXXXXX+000000000000%",
"%999999999999gkkkkkkf999999999999%",
"%999999999999kkkkkkkk999999999999%",
"%888888888888kka88skk888888888888%",
"%888888888888kk8888kk888888888888%",
"%777777777777kk3773kk777777777777%",
"%777777777777kk#  #kk777777777777%",
"%666666666666kkkkkkkk666666666666%",
"%666666666666jkkkkkkh666666666666%",
"%55555555555555555555555555555555%",
"%55555555555555555555555555555555%",
"%44444444444444444444444444444444%",
"%44444444444444444444444444444444%",
"%22222222222222222222222222222222%",
"%22222222222222222222222222222222%",
"%11111111111111111111111111111111%",
"%11111111111111111111111111111111%",
"%<<<<<<<<<<<<<<<<<<<<<<<<<<<<<<<<%",
"%<<<<<<<<<<<<<<<<<<<<<<<<<<<<<<<<%",
"&>,,,,,,,,,,,,,,,,,,,,,,,,,,,,,,:*",
"-%;,,,,,,,,,,,,,,,,,,,,,,,,,,,,;@-",
"l$o............................o$l",
"llllllllllllllllllllllllllllllllll"
};
