/* XPM */
static char *menu_inactive_png[] = {
/* columns rows colors chars-per-pixel */
"34 36 3 1 ",
"  c #33393B",
". c #919494",
"X c None",
/* pixels */
"XXXXXXXXXXXXXXXXXXXXXXXXXXXXXXXXXX",
"                                  ",
"                                  ",
"                                  ",
"                                  ",
"                                  ",
"                                  ",
"                                  ",
"                                  ",
"                                  ",
"                                  ",
"                                  ",
"             ........             ",
"             ........             ",
"                                  ",
"                                  ",
"             ........             ",
"             ........             ",
"                                  ",
"                                  ",
"             ........             ",
"             ........             ",
"                                  ",
"                                  ",
"                                  ",
"                                  ",
"                                  ",
"                                  ",
"                                  ",
"                                  ",
"                                  ",
"                                  ",
"                                  ",
"                                  ",
"                                  ",
"XXXXXXXXXXXXXXXXXXXXXXXXXXXXXXXXXX"
};
