/* XPM */
static char *stick_toggled_pressed_png[] = {
/* columns rows colors chars-per-pixel */
"34 36 41 1 ",
"  c #0C0D0D",
". c #101111",
"X c #171919",
"o c #1B1F20",
"O c #1D2122",
"+ c #1D2123",
"@ c #222626",
"# c #222728",
"$ c #242829",
"% c #272828",
"& c #24282A",
"* c #25292B",
"= c #2F3434",
"- c #333434",
"; c #333635",
": c #353A3A",
"> c #3A3D3D",
", c #383E3E",
"< c #383F3F",
"1 c #3D4444",
"2 c #4E5252",
"3 c #505050",
"4 c #525757",
"5 c #525858",
"6 c #585C5B",
"7 c #5C6261",
"8 c #727776",
"9 c #8A8B8A",
"0 c #8C8C8B",
"q c #9DA09F",
"w c #A0A2A1",
"e c #BCBCBB",
"r c #BEBFBD",
"t c #C5C6C5",
"y c #C7C8C6",
"u c #DADAD8",
"i c #DADAD9",
"p c #DCDCDA",
"a c #DEDFDD",
"s c #EEEEEC",
"d c None",
/* pixels */
"dddddddddddddddddddddddddddddddddd",
"d#OooooooooooooooooooooooooooooO$d",
"#+&****************************&+$",
"O&******************************&O",
"o********************************o",
"o********************************o",
"o********************************o",
"o********************************o",
"o********************************o",
"o********************************o",
"o********************************o",
"o********************************o",
"o*************<@..@<*************o",
"o************=%9uu9%=************o",
"o***********,3ssssss3,***********o",
"o***********>ss6XX6ss>***********o",
"o***********0s7;ee;7s0***********o",
"o***********is1rssr1si***********o",
"o***********ps:tsst:sp***********o",
"o***********qs-2yy2-sq***********o",
"o***********5ss-  -ss5***********o",
"o************8ssssss8************o",
"o*************4waaw4*************o",
"o********************************o",
"o********************************o",
"o********************************o",
"o********************************o",
"o********************************o",
"o********************************o",
"o********************************o",
"o********************************o",
"o********************************o",
"O&******************************&O",
"$+&****************************&+$",
"d$OooooooooooooooooooooooooooooO$d",
"dddddddddddddddddddddddddddddddddd"
};
