/* XPM */
static char *stick_active[] = {
/* columns rows colors chars-per-pixel */
"34 36 26 1 ",
"  c #0C0D0D",
". c #101111",
"X c #222626",
"o c #272828",
"O c #2C3133",
"+ c #2F3434",
"@ c #333434",
"# c #353A3A",
"$ c #3A3D3D",
"% c #383E3E",
"& c #383F3F",
"* c #505050",
"= c #525757",
"- c #525858",
"; c #5C6261",
": c #5D6262",
"> c #727776",
", c #8A8B8A",
"< c #8C8C8B",
"1 c #9DA09F",
"2 c #A0A2A1",
"3 c #DADAD9",
"4 c #DCDCDA",
"5 c #DEDFDD",
"6 c #EEEEEC",
"7 c None",
/* pixels */
"7777777777777777777777777777777777",
"OOOOOOOOOOOOOOOOOOOOOOOOOOOOOOOOOO",
"OOOOOOOOOOOOOOOOOOOOOOOOOOOOOOOOOO",
"OOOOOOOOOOOOOOOOOOOOOOOOOOOOOOOOOO",
"OOOOOOOOOOOOOOOOOOOOOOOOOOOOOOOOOO",
"OOOOOOOOOOOOOOOOOOOOOOOOOOOOOOOOOO",
"OOOOOOOOOOOOOOOOOOOOOOOOOOOOOOOOOO",
"OOOOOOOOOOOOOOOOOOOOOOOOOOOOOOOOOO",
"OOOOOOOOOOOOOOOOOOOOOOOOOOOOOOOOOO",
"OOOOOOOOOOOOOOOOOOOOOOOOOOOOOOOOOO",
"OOOOOOOOOOOOOOOOOOOOOOOOOOOOOOOOOO",
"OOOOOOOOOOOOOO&X..X&OOOOOOOOOOOOOO",
"OOOOOOOOOOOOO+o,55,o+OOOOOOOOOOOOO",
"OOOOOOOOOOOO%*666666*%OOOOOOOOOOOO",
"OOOOOOOOOOOO$66:OO:66$OOOOOOOOOOOO",
"OOOOOOOOOOOO<6;OOOO;6<OOOOOOOOOOOO",
"OOOOOOOOOOOO36OOOOOO63OOOOOOOOOOOO",
"OOOOOOOOOOOO46#OOOO#64OOOOOOOOOOOO",
"OOOOOOOOOOOO16@#OO#@61OOOOOOOOOOOO",
"OOOOOOOOOOOO-66@  @66-OOOOOOOOOOOO",
"OOOOOOOOOOOOO>666666>OOOOOOOOOOOOO",
"OOOOOOOOOOOOOO=2552=OOOOOOOOOOOOOO",
"OOOOOOOOOOOOOOOOOOOOOOOOOOOOOOOOOO",
"OOOOOOOOOOOOOOOOOOOOOOOOOOOOOOOOOO",
"OOOOOOOOOOOOOOOOOOOOOOOOOOOOOOOOOO",
"OOOOOOOOOOOOOOOOOOOOOOOOOOOOOOOOOO",
"OOOOOOOOOOOOOOOOOOOOOOOOOOOOOOOOOO",
"OOOOOOOOOOOOOOOOOOOOOOOOOOOOOOOOOO",
"OOOOOOOOOOOOOOOOOOOOOOOOOOOOOOOOOO",
"OOOOOOOOOOOOOOOOOOOOOOOOOOOOOOOOOO",
"OOOOOOOOOOOOOOOOOOOOOOOOOOOOOOOOOO",
"OOOOOOOOOOOOOOOOOOOOOOOOOOOOOOOOOO",
"OOOOOOOOOOOOOOOOOOOOOOOOOOOOOOOOOO",
"7777777777777777777777777777777777",
"7777777777777777777777777777777777",
"7777777777777777777777777777777777"
};
