/* XPM */
static char *title_1_active[] = {
/* columns rows colors chars-per-pixel */
"1 38 7 1 ",
"  c #0B0C0C",
". c #262A2C",
"X c #2A2E2B",
"o c #292D2F",
"O c #2B2F31",
"+ c #2C3133",
"@ c #393E40",
/* pixels */
"X",
"@",
"+",
"+",
"+",
"+",
"+",
"+",
"+",
"+",
"+",
"+",
"+",
"+",
"+",
"+",
"+",
"+",
"+",
"+",
"+",
"+",
"+",
"+",
"+",
"+",
"+",
"+",
"+",
"+",
"+",
"+",
"+",
"+",
"O",
"o",
".",
" "
};
