/* XPM */
static char * top_left_active_xpm[] = {
/* columns rows colors chars-per-pixel */
"7 38 20 1",
" 	c None",
".	c #1C2021",
"+	c #1B1F1F",
"@	c #2F3536",
"#	c #373B3D",
"$	c #242829",
"%	c #363C3E",
"&	c #323739",
"*	c #2E3335",
"=	c #34393B",
"-	c #2D3234",
";	c #2C3133",
">	c #32383A",
",	c #292D2F",
"'	c #1C2020",
")	c #303537",
"!	c #1A1F1F",
"~	c #2B2F31",
"{	c #262A2C",
"]	c #0B0C0C",
/* pixels */
"     ..",
"   .+@#",
"  .$%&*",
" .$=-;;",
" +>;;;;",
".,-;;;;",
"');;;;;",
"+*;;;;;",
"+;;;;;;",
"+;;;;;;",
"+;;;;;;",
"+;;;;;;",
"+;;;;;;",
"+;;;;;;",
"+;;;;;;",
"+;;;;;;",
"+;;;;;;",
"+;;;;;;",
"+;;;;;;",
"+;;;;;;",
"+;;;;;;",
"+;;;;;;",
"+;;;;;;",
"+;;;;;;",
"+;;;;;;",
"+;;;;;;",
"!;;;;;;",
"!;;;;;;",
"!;;;;;;",
"!;;;;;;",
"!;;;;;;",
"!;;;;;;",
"!;;;;;;",
"!;;;;;;",
"!~~~~~~",
"!,,,,,,",
"!{{{{{{",
"!]]]]]]"};
