<?xml version="1.0" encoding="UTF-8"?>
<?xml-stylesheet href="https://cdnjs.cloudflare.com/ajax/libs/font-awesome/6.5.2/css/all.min.css" type="text/css"?>
<svg aria-roledescription="er" role="graphics-document document" viewBox="0 0 714.375 1437.3333740234375" style="max-width: 100%;" xmlns="http://www.w3.org/2000/svg" width="100%" id="graph-div" height="100%" xmlns:xlink="http://www.w3.org/1999/xlink"><style>#graph-div{font-family:"trebuchet ms",verdana,arial,sans-serif;font-size:16px;fill:#333;}#graph-div .error-icon{fill:#552222;}#graph-div .error-text{fill:#552222;stroke:#552222;}#graph-div .edge-thickness-normal{stroke-width:2px;}#graph-div .edge-thickness-thick{stroke-width:3.5px;}#graph-div .edge-pattern-solid{stroke-dasharray:0;}#graph-div .edge-pattern-dashed{stroke-dasharray:3;}#graph-div .edge-pattern-dotted{stroke-dasharray:2;}#graph-div .marker{fill:#333333;stroke:#333333;}#graph-div .marker.cross{stroke:#333333;}#graph-div svg{font-family:"trebuchet ms",verdana,arial,sans-serif;font-size:16px;}#graph-div .entityBox{fill:#ECECFF;stroke:#9370DB;}#graph-div .attributeBoxOdd{fill:#ffffff;stroke:#9370DB;}#graph-div .attributeBoxEven{fill:#f2f2f2;stroke:#9370DB;}#graph-div .relationshipLabelBox{fill:hsl(80, 100%, 96.2745098039%);opacity:0.7;background-color:hsl(80, 100%, 96.2745098039%);}#graph-div .relationshipLabelBox rect{opacity:0.5;}#graph-div .relationshipLine{stroke:#333333;}#graph-div .entityTitleText{text-anchor:middle;font-size:18px;fill:#333;}#graph-div #MD_PARENT_START{fill:#f5f5f5!important;stroke:#333333!important;stroke-width:1;}#graph-div #MD_PARENT_END{fill:#f5f5f5!important;stroke:#333333!important;stroke-width:1;}#graph-div :root{--mermaid-font-family:"trebuchet ms",verdana,arial,sans-serif;}</style><g></g><defs><marker orient="auto" markerHeight="240" markerWidth="190" refY="7" refX="0" id="MD_PARENT_START"><path d="M 18,7 L9,13 L1,7 L9,1 Z"></path></marker></defs><defs><marker orient="auto" markerHeight="28" markerWidth="20" refY="7" refX="19" id="MD_PARENT_END"><path d="M 18,7 L9,13 L1,7 L9,1 Z"></path></marker></defs><defs><marker orient="auto" markerHeight="18" markerWidth="18" refY="9" refX="0" id="ONLY_ONE_START"><path d="M9,0 L9,18 M15,0 L15,18" fill="none" stroke="gray"></path></marker></defs><defs><marker orient="auto" markerHeight="18" markerWidth="18" refY="9" refX="18" id="ONLY_ONE_END"><path d="M3,0 L3,18 M9,0 L9,18" fill="none" stroke="gray"></path></marker></defs><defs><marker orient="auto" markerHeight="18" markerWidth="30" refY="9" refX="0" id="ZERO_OR_ONE_START"><circle r="6" cy="9" cx="21" fill="white" stroke="gray"></circle><path d="M9,0 L9,18" fill="none" stroke="gray"></path></marker></defs><defs><marker orient="auto" markerHeight="18" markerWidth="30" refY="9" refX="30" id="ZERO_OR_ONE_END"><circle r="6" cy="9" cx="9" fill="white" stroke="gray"></circle><path d="M21,0 L21,18" fill="none" stroke="gray"></path></marker></defs><defs><marker orient="auto" markerHeight="36" markerWidth="45" refY="18" refX="18" id="ONE_OR_MORE_START"><path d="M0,18 Q 18,0 36,18 Q 18,36 0,18 M42,9 L42,27" fill="none" stroke="gray"></path></marker></defs><defs><marker orient="auto" markerHeight="36" markerWidth="45" refY="18" refX="27" id="ONE_OR_MORE_END"><path d="M3,9 L3,27 M9,18 Q27,0 45,18 Q27,36 9,18" fill="none" stroke="gray"></path></marker></defs><defs><marker orient="auto" markerHeight="36" markerWidth="57" refY="18" refX="18" id="ZERO_OR_MORE_START"><circle r="6" cy="18" cx="48" fill="white" stroke="gray"></circle><path d="M0,18 Q18,0 36,18 Q18,36 0,18" fill="none" stroke="gray"></path></marker></defs><defs><marker orient="auto" markerHeight="36" markerWidth="57" refY="18" refX="39" id="ZERO_OR_MORE_END"><circle r="6" cy="18" cx="9" fill="white" stroke="gray"></circle><path d="M21,18 Q39,0 57,18 Q39,36 21,18" fill="none" stroke="gray"></path></marker></defs><path style="stroke: gray; fill: none;" marker-start="url(#ONLY_ONE_START)" marker-end="url(#ONLY_ONE_END)" d="M274.99,65.333L274.99,73.667C274.99,82,274.99,98.667,274.99,115.333C274.99,132,274.99,148.667,274.99,157L274.99,165.333" class="er relationshipLine"></path><path style="stroke: gray; fill: none;" marker-start="url(#ONLY_ONE_START)" marker-end="url(#ONLY_ONE_END)" d="M274.99,210.667L274.99,219C274.99,227.333,274.99,244,274.99,260.667C274.99,277.333,274.99,294,274.99,302.333L274.99,310.667" class="er relationshipLine"></path><path style="stroke: gray; fill: none;" marker-start="url(#ONLY_ONE_START)" marker-end="url(#ONLY_ONE_END)" d="M274.99,356L274.99,364.333C274.99,372.667,274.99,389.333,274.99,406C274.99,422.667,274.99,439.333,274.99,447.667L274.99,456" class="er relationshipLine"></path><path style="stroke: gray; fill: none;" marker-start="url(#ONLY_ONE_START)" marker-end="url(#ONLY_ONE_END)" d="M274.99,523.333L274.99,531.667C274.99,540,274.99,556.667,274.99,573.333C274.99,590,274.99,606.667,274.99,615L274.99,623.333" class="er relationshipLine"></path><path style="stroke: gray; fill: none;" marker-start="url(#ONLY_ONE_START)" marker-end="url(#ONLY_ONE_END)" d="M274.99,668.667L274.99,677C274.99,685.333,274.99,702,274.99,718.667C274.99,735.333,274.99,752,274.99,760.333L274.99,768.667" class="er relationshipLine"></path><path style="stroke: gray; fill: none;" marker-start="url(#ONLY_ONE_START)" marker-end="url(#ONLY_ONE_END)" d="M274.99,836L274.99,844.333C274.99,852.667,274.99,869.333,274.99,886C274.99,902.667,274.99,919.333,274.99,927.667L274.99,936" class="er relationshipLine"></path><path style="stroke: gray; fill: none;" marker-start="url(#ONLY_ONE_START)" marker-end="url(#ONLY_ONE_END)" d="M224.99,974.159L194.234,983.688C163.479,993.217,101.969,1012.275,76.947,1030.138C51.926,1048,63.394,1064.667,69.128,1073L74.862,1081.333" class="er relationshipLine"></path><path style="stroke: gray; fill: none;" marker-start="url(#ONLY_ONE_START)" marker-end="url(#ONLY_ONE_END)" d="M116.826,1081.333L126.52,1073C136.214,1064.667,155.602,1048,176.764,1031.333C197.925,1014.667,220.861,998,232.329,989.667L243.797,981.333" class="er relationshipLine"></path><path style="stroke: gray; fill: none;" marker-start="url(#ONLY_ONE_START)" marker-end="url(#ONLY_ONE_END)" d="M274.99,981.333L274.99,989.667C274.99,998,274.99,1014.667,284.684,1031.333C294.377,1048,313.765,1064.667,323.459,1073L333.153,1081.333" class="er relationshipLine"></path><path style="stroke: gray; fill: none;" marker-start="url(#ONLY_ONE_START)" marker-end="url(#ONLY_ONE_END)" d="M382.698,1081.333L391.219,1073C399.739,1064.667,416.781,1048,407.087,1031.333C397.393,1014.667,360.964,998,342.749,989.667L324.534,981.333" class="er relationshipLine"></path><path style="stroke: gray; fill: none;" marker-start="url(#ONLY_ONE_START)" marker-end="url(#ONLY_ONE_END)" d="M324.99,969.573L372.179,979.867C419.368,990.16,513.747,1010.747,560.936,1029.373C608.125,1048,608.125,1064.667,608.125,1073L608.125,1081.333" class="er relationshipLine"></path><path style="stroke: gray; fill: none;" marker-start="url(#ONLY_ONE_START)" marker-end="url(#ONLY_ONE_END)" d="M608.125,1126.667L608.125,1135C608.125,1143.333,608.125,1160,608.125,1176.667C608.125,1193.333,608.125,1210,608.125,1218.333L608.125,1226.667" class="er relationshipLine"></path><path style="stroke: gray; fill: none;" marker-start="url(#ONLY_ONE_START)" marker-end="url(#ONLY_ONE_END)" d="M608.125,1272L608.125,1280.333C608.125,1288.667,608.125,1305.333,608.125,1322C608.125,1338.667,608.125,1355.333,608.125,1363.667L608.125,1372" class="er relationshipLine"></path><g transform="translate(224.98958587646484,20 )" id="entity-POWERON-5d8cabbf-3b64-55f0-b0f8-5e3c982840f0"><rect height="45.33333396911621" width="100" y="0" x="0" class="er entityBox"></rect><text transform="translate(50,11.666666984558105)" style="dominant-baseline: middle; text-anchor: middle; font-size: 12px;" y="0" x="0" id="text-entity-POWERON-5d8cabbf-3b64-55f0-b0f8-5e3c982840f0" class="er entityLabel">POWER-ON</text><rect height="22" width="48.452961921691895" y="23.33333396911621" x="0" class="er attributeBoxOdd"></rect><text transform="translate(5,34.33333396911621)" style="dominant-baseline: middle; font-size: 10.2px;" y="0" x="0" id="text-entity-POWERON-5d8cabbf-3b64-55f0-b0f8-5e3c982840f0-attr-1-type" class="er entityLabel">string</text><rect height="22" width="51.547038078308105" y="23.33333396911621" x="48.452961921691895" class="er attributeBoxOdd"></rect><text transform="translate(53.452961921691895,34.33333396911621)" style="dominant-baseline: middle; font-size: 10.2px;" y="0" x="0" id="text-entity-POWERON-5d8cabbf-3b64-55f0-b0f8-5e3c982840f0-attr-1-name" class="er entityLabel">Action</text></g><g transform="translate(211.27376556396484,165.33333206176758 )" id="entity-PREVERIFICATION-68deb0e4-699b-5042-a091-fb35583530d3"><rect height="45.33333396911621" width="127.431640625" y="0" x="0" class="er entityBox"></rect><text transform="translate(63.7158203125,11.666666984558105)" style="dominant-baseline: middle; text-anchor: middle; font-size: 12px;" y="0" x="0" id="text-entity-PREVERIFICATION-68deb0e4-699b-5042-a091-fb35583530d3" class="er entityLabel">PRE-VERIFICATION</text><rect height="22" width="62.168782234191895" y="23.33333396911621" x="0" class="er attributeBoxOdd"></rect><text transform="translate(5,34.33333396911621)" style="dominant-baseline: middle; font-size: 10.2px;" y="0" x="0" id="text-entity-PREVERIFICATION-68deb0e4-699b-5042-a091-fb35583530d3-attr-1-type" class="er entityLabel">string</text><rect height="22" width="65.2628583908081" y="23.33333396911621" x="62.168782234191895" class="er attributeBoxOdd"></rect><text transform="translate(67.1687822341919,34.33333396911621)" style="dominant-baseline: middle; font-size: 10.2px;" y="0" x="0" id="text-entity-PREVERIFICATION-68deb0e4-699b-5042-a091-fb35583530d3-attr-1-name" class="er entityLabel">Action</text></g><g transform="translate(189.99837493896484,310.66666412353516 )" id="entity-PLATFORMINITIALIZATION-b18c4d3a-4cb5-5629-aaa0-1c326f897454"><rect height="45.33333396911621" width="169.982421875" y="0" x="0" class="er entityBox"></rect><text transform="translate(84.9912109375,11.666666984558105)" style="dominant-baseline: middle; text-anchor: middle; font-size: 12px;" y="0" x="0" id="text-entity-PLATFORMINITIALIZATION-b18c4d3a-4cb5-5629-aaa0-1c326f897454" class="er entityLabel">PLATFORM-INITIALIZATION</text><rect height="22" width="83.4441728591919" y="23.33333396911621" x="0" class="er attributeBoxOdd"></rect><text transform="translate(5,34.33333396911621)" style="dominant-baseline: middle; font-size: 10.2px;" y="0" x="0" id="text-entity-PLATFORMINITIALIZATION-b18c4d3a-4cb5-5629-aaa0-1c326f897454-attr-1-type" class="er entityLabel">string</text><rect height="22" width="86.5382490158081" y="23.33333396911621" x="83.4441728591919" class="er attributeBoxOdd"></rect><text transform="translate(88.4441728591919,34.33333396911621)" style="dominant-baseline: middle; font-size: 10.2px;" y="0" x="0" id="text-entity-PLATFORMINITIALIZATION-b18c4d3a-4cb5-5629-aaa0-1c326f897454-attr-1-name" class="er entityLabel">Action</text></g><g transform="translate(224.98958587646484,623.3333320617676 )" id="entity-SHIM-5c9fd535-56cf-535f-bc01-0681b0be900f"><rect height="45.33333396911621" width="100" y="0" x="0" class="er entityBox"></rect><text transform="translate(50,11.666666984558105)" style="dominant-baseline: middle; text-anchor: middle; font-size: 12px;" y="0" x="0" id="text-entity-SHIM-5c9fd535-56cf-535f-bc01-0681b0be900f" class="er entityLabel">SHIM</text><rect height="22" width="37.244627952575684" y="23.33333396911621" x="0" class="er attributeBoxOdd"></rect><text transform="translate(5,34.33333396911621)" style="dominant-baseline: middle; font-size: 10.2px;" y="0" x="0" id="text-entity-SHIM-5c9fd535-56cf-535f-bc01-0681b0be900f-attr-1-type" class="er entityLabel">string</text><rect height="22" width="62.755372047424316" y="23.33333396911621" x="37.244627952575684" class="er attributeBoxOdd"></rect><text transform="translate(42.244627952575684,34.33333396911621)" style="dominant-baseline: middle; font-size: 10.2px;" y="0" x="0" id="text-entity-SHIM-5c9fd535-56cf-535f-bc01-0681b0be900f-attr-1-name" class="er entityLabel">Description</text></g><g transform="translate(218.34473037719727,455.99999618530273 )" id="entity-UEFIFIRMWARE-b67e779e-9bc7-5304-a7d3-3c65b1caafa0"><rect height="67.33333396911621" width="113.28971862792969" y="0" x="0" class="er entityBox"></rect><text transform="translate(56.644859313964844,11.666666984558105)" style="dominant-baseline: middle; text-anchor: middle; font-size: 12px;" y="0" x="0" id="text-entity-UEFIFIRMWARE-b67e779e-9bc7-5304-a7d3-3c65b1caafa0" class="er entityLabel">UEFI-FIRMWARE</text><rect height="22" width="39.14754390716553" y="23.33333396911621" x="0" class="er attributeBoxOdd"></rect><text transform="translate(5,34.33333396911621)" style="dominant-baseline: middle; font-size: 10.2px;" y="0" x="0" id="text-entity-UEFIFIRMWARE-b67e779e-9bc7-5304-a7d3-3c65b1caafa0-attr-1-type" class="er entityLabel">string</text><rect height="22" width="74.14217472076416" y="23.33333396911621" x="39.14754390716553" class="er attributeBoxOdd"></rect><text transform="translate(44.14754390716553,34.33333396911621)" style="dominant-baseline: middle; font-size: 10.2px;" y="0" x="0" id="text-entity-UEFIFIRMWARE-b67e779e-9bc7-5304-a7d3-3c65b1caafa0-attr-1-name" class="er entityLabel">Manufacturer</text><rect height="22" width="39.14754390716553" y="45.33333396911621" x="0" class="er attributeBoxEven"></rect><text transform="translate(5,56.33333396911621)" style="dominant-baseline: middle; font-size: 10.2px;" y="0" x="0" id="text-entity-UEFIFIRMWARE-b67e779e-9bc7-5304-a7d3-3c65b1caafa0-attr-2-type" class="er entityLabel">string</text><rect height="22" width="74.14217472076416" y="45.33333396911621" x="39.14754390716553" class="er attributeBoxEven"></rect><text transform="translate(44.14754390716553,56.33333396911621)" style="dominant-baseline: middle; font-size: 10.2px;" y="0" x="0" id="text-entity-UEFIFIRMWARE-b67e779e-9bc7-5304-a7d3-3c65b1caafa0-attr-2-name" class="er entityLabel">Version</text></g><g transform="translate(221.88802337646484,768.6666641235352 )" id="entity-BOOTLOADER-615e9119-916a-5120-84a2-3b83ef8dadb6"><rect height="67.33333396911621" width="106.203125" y="0" x="0" class="er entityBox"></rect><text transform="translate(53.1015625,11.666666984558105)" style="dominant-baseline: middle; text-anchor: middle; font-size: 12px;" y="0" x="0" id="text-entity-BOOTLOADER-615e9119-916a-5120-84a2-3b83ef8dadb6" class="er entityLabel">BOOT-LOADER</text><rect height="22" width="49.617024421691895" y="23.33333396911621" x="0" class="er attributeBoxOdd"></rect><text transform="translate(5,34.33333396911621)" style="dominant-baseline: middle; font-size: 10.2px;" y="0" x="0" id="text-entity-BOOTLOADER-615e9119-916a-5120-84a2-3b83ef8dadb6-attr-1-type" class="er entityLabel">string</text><rect height="22" width="56.586100578308105" y="23.33333396911621" x="49.617024421691895" class="er attributeBoxOdd"></rect><text transform="translate(54.617024421691895,34.33333396911621)" style="dominant-baseline: middle; font-size: 10.2px;" y="0" x="0" id="text-entity-BOOTLOADER-615e9119-916a-5120-84a2-3b83ef8dadb6-attr-1-name" class="er entityLabel">Name</text><rect height="22" width="49.617024421691895" y="45.33333396911621" x="0" class="er attributeBoxEven"></rect><text transform="translate(5,56.33333396911621)" style="dominant-baseline: middle; font-size: 10.2px;" y="0" x="0" id="text-entity-BOOTLOADER-615e9119-916a-5120-84a2-3b83ef8dadb6-attr-2-type" class="er entityLabel">string</text><rect height="22" width="56.586100578308105" y="45.33333396911621" x="49.617024421691895" class="er attributeBoxEven"></rect><text transform="translate(54.617024421691895,56.33333396911621)" style="dominant-baseline: middle; font-size: 10.2px;" y="0" x="0" id="text-entity-BOOTLOADER-615e9119-916a-5120-84a2-3b83ef8dadb6-attr-2-name" class="er entityLabel">Version</text></g><g transform="translate(224.98958587646484,936 )" id="entity-INITRD-c53a6680-8f36-5ac6-b4f9-123de809763e"><rect height="45.33333396911621" width="100" y="0" x="0" class="er entityBox"></rect><text transform="translate(50,11.666666984558105)" style="dominant-baseline: middle; text-anchor: middle; font-size: 12px;" y="0" x="0" id="text-entity-INITRD-c53a6680-8f36-5ac6-b4f9-123de809763e" class="er entityLabel">INITRD</text><rect height="22" width="42.755045890808105" y="23.33333396911621" x="0" class="er attributeBoxOdd"></rect><text transform="translate(5,34.33333396911621)" style="dominant-baseline: middle; font-size: 10.2px;" y="0" x="0" id="text-entity-INITRD-c53a6680-8f36-5ac6-b4f9-123de809763e-attr-1-type" class="er entityLabel">string</text><rect height="22" width="57.244954109191895" y="23.33333396911621" x="42.755045890808105" class="er attributeBoxOdd"></rect><text transform="translate(47.755045890808105,34.33333396911621)" style="dominant-baseline: middle; font-size: 10.2px;" y="0" x="0" id="text-entity-INITRD-c53a6680-8f36-5ac6-b4f9-123de809763e-attr-1-name" class="er entityLabel">Contents</text></g><g transform="translate(20,1081.3333320617676 )" id="entity-TPMMEASUREMENTS-9e522d34-dee2-5cf8-91fe-d94d839afcb4"><rect height="45.33333396911621" width="140.9166717529297" y="0" x="0" class="er entityBox"></rect><text transform="translate(70.45833587646484,11.666666984558105)" style="dominant-baseline: middle; text-anchor: middle; font-size: 12px;" y="0" x="0" id="text-entity-TPMMEASUREMENTS-9e522d34-dee2-5cf8-91fe-d94d839afcb4" class="er entityLabel">TPM-MEASUREMENTS</text><rect height="22" width="52.97379779815674" y="23.33333396911621" x="0" class="er attributeBoxOdd"></rect><text transform="translate(5,34.33333396911621)" style="dominant-baseline: middle; font-size: 10.2px;" y="0" x="0" id="text-entity-TPMMEASUREMENTS-9e522d34-dee2-5cf8-91fe-d94d839afcb4-attr-1-type" class="er entityLabel">string</text><rect height="22" width="87.94287395477295" y="23.33333396911621" x="52.97379779815674" class="er attributeBoxOdd"></rect><text transform="translate(57.97379779815674,34.33333396911621)" style="dominant-baseline: middle; font-size: 10.2px;" y="0" x="0" id="text-entity-TPMMEASUREMENTS-9e522d34-dee2-5cf8-91fe-d94d839afcb4-attr-1-name" class="er entityLabel">Measurement</text></g><g transform="translate(260.9166717529297,1081.3333320617676 )" id="entity-ENCRYPTEDROOTFILESYSTEM-a14cccf9-86f4-513a-a447-d9e968479a7b"><rect height="45.33333396911621" width="197.20834350585938" y="0" x="0" class="er entityBox"></rect><text transform="translate(98.60417175292969,11.666666984558105)" style="dominant-baseline: middle; text-anchor: middle; font-size: 12px;" y="0" x="0" id="text-entity-ENCRYPTEDROOTFILESYSTEM-a14cccf9-86f4-513a-a447-d9e968479a7b" class="er entityLabel">ENCRYPTED-ROOT-FILE-SYSTEM</text><rect height="22" width="77.0467176437378" y="23.33333396911621" x="0" class="er attributeBoxOdd"></rect><text transform="translate(5,34.33333396911621)" style="dominant-baseline: middle; font-size: 10.2px;" y="0" x="0" id="text-entity-ENCRYPTEDROOTFILESYSTEM-a14cccf9-86f4-513a-a447-d9e968479a7b-attr-1-type" class="er entityLabel">string</text><rect height="22" width="120.16162586212158" y="23.33333396911621" x="77.0467176437378" class="er attributeBoxOdd"></rect><text transform="translate(82.0467176437378,34.33333396911621)" style="dominant-baseline: middle; font-size: 10.2px;" y="0" x="0" id="text-entity-ENCRYPTEDROOTFILESYSTEM-a14cccf9-86f4-513a-a447-d9e968479a7b-attr-1-name" class="er entityLabel">FilesystemType</text></g><g transform="translate(558.125,1081.3333320617676 )" id="entity-KERNEL-6bfd6103-007a-5563-9c5e-064d35f212ec"><rect height="45.33333396911621" width="100" y="0" x="0" class="er entityBox"></rect><text transform="translate(50,11.666666984558105)" style="dominant-baseline: middle; text-anchor: middle; font-size: 12px;" y="0" x="0" id="text-entity-KERNEL-6bfd6103-007a-5563-9c5e-064d35f212ec" class="er entityLabel">KERNEL</text><rect height="22" width="46.515461921691895" y="23.33333396911621" x="0" class="er attributeBoxOdd"></rect><text transform="translate(5,34.33333396911621)" style="dominant-baseline: middle; font-size: 10.2px;" y="0" x="0" id="text-entity-KERNEL-6bfd6103-007a-5563-9c5e-064d35f212ec-attr-1-type" class="er entityLabel">string</text><rect height="22" width="53.484538078308105" y="23.33333396911621" x="46.515461921691895" class="er attributeBoxOdd"></rect><text transform="translate(51.515461921691895,34.33333396911621)" style="dominant-baseline: middle; font-size: 10.2px;" y="0" x="0" id="text-entity-KERNEL-6bfd6103-007a-5563-9c5e-064d35f212ec-attr-1-name" class="er entityLabel">Version</text></g><g transform="translate(546.1875,1226.6666641235352 )" id="entity-SYSTEMDORINIT-58848531-c31e-5a77-a103-e26281731669"><rect height="45.33333396911621" width="123.875" y="0" x="0" class="er entityBox"></rect><text transform="translate(61.9375,11.666666984558105)" style="dominant-baseline: middle; text-anchor: middle; font-size: 12px;" y="0" x="0" id="text-entity-SYSTEMDORINIT-58848531-c31e-5a77-a103-e26281731669" class="er entityLabel">SYSTEMD-OR-INIT</text><rect height="22" width="51.202961921691895" y="23.33333396911621" x="0" class="er attributeBoxOdd"></rect><text transform="translate(5,34.33333396911621)" style="dominant-baseline: middle; font-size: 10.2px;" y="0" x="0" id="text-entity-SYSTEMDORINIT-58848531-c31e-5a77-a103-e26281731669-attr-1-type" class="er entityLabel">string</text><rect height="22" width="72.6720380783081" y="23.33333396911621" x="51.202961921691895" class="er attributeBoxOdd"></rect><text transform="translate(56.202961921691895,34.33333396911621)" style="dominant-baseline: middle; font-size: 10.2px;" y="0" x="0" id="text-entity-SYSTEMDORINIT-58848531-c31e-5a77-a103-e26281731669-attr-1-name" class="er entityLabel">InitSystem</text></g><g transform="translate(521.875,1371.9999961853027 )" id="entity-USERSPACEANDSERVICES-c445755e-01db-5d56-9c7c-757d08caccb2"><rect height="45.33333396911621" width="172.5" y="0" x="0" class="er entityBox"></rect><text transform="translate(86.25,11.666666984558105)" style="dominant-baseline: middle; text-anchor: middle; font-size: 12px;" y="0" x="0" id="text-entity-USERSPACEANDSERVICES-c445755e-01db-5d56-9c7c-757d08caccb2" class="er entityLabel">USER-SPACE-AND-SERVICES</text><rect height="22" width="80.7029619216919" y="23.33333396911621" x="0" class="er attributeBoxOdd"></rect><text transform="translate(5,34.33333396911621)" style="dominant-baseline: middle; font-size: 10.2px;" y="0" x="0" id="text-entity-USERSPACEANDSERVICES-c445755e-01db-5d56-9c7c-757d08caccb2-attr-1-type" class="er entityLabel">string</text><rect height="22" width="91.7970380783081" y="23.33333396911621" x="80.7029619216919" class="er attributeBoxOdd"></rect><text transform="translate(85.7029619216919,34.33333396911621)" style="dominant-baseline: middle; font-size: 10.2px;" y="0" x="0" id="text-entity-USERSPACEANDSERVICES-c445755e-01db-5d56-9c7c-757d08caccb2-attr-1-name" class="er entityLabel">Services</text></g><rect height="13.333333969116211" width="41.432945251464844" y="108.66632556915283" x="254.27351760864258" class="er relationshipLabelBox"></rect><text style="text-anchor: middle; dominant-baseline: middle; font-size: 12px;" y="115.33299255371094" x="274.989990234375" id="rel75" class="er relationshipLabel">triggers</text><rect height="13.333333969116211" width="40.243492126464844" y="254.0003252029419" x="254.86824417114258" class="er relationshipLabelBox"></rect><text style="text-anchor: middle; dominant-baseline: middle; font-size: 12px;" y="260.6669921875" x="274.989990234375" id="rel76" class="er relationshipLabel">verifies</text><rect height="13.333333969116211" width="52.419273376464844" y="399.3333330154419" x="248.78035354614258" class="er relationshipLabelBox"></rect><text style="text-anchor: middle; dominant-baseline: middle; font-size: 12px;" y="406" x="274.989990234375" id="rel77" class="er relationshipLabel">initializes</text><rect height="13.333333969116211" width="28.30208396911621" y="566.6663408279419" x="260.8389482498169" class="er relationshipLabelBox"></rect><text style="text-anchor: middle; dominant-baseline: middle; font-size: 12px;" y="573.3330078125" x="274.989990234375" id="rel78" class="er relationshipLabel">loads</text><rect height="13.333333969116211" width="28.30208396911621" y="712.0003252029419" x="260.8389482498169" class="er relationshipLabelBox"></rect><text style="text-anchor: middle; dominant-baseline: middle; font-size: 12px;" y="718.6669921875" x="274.989990234375" id="rel79" class="er relationshipLabel">loads</text><rect height="13.333333969116211" width="28.30208396911621" y="879.3333330154419" x="260.8389482498169" class="er relationshipLabelBox"></rect><text style="text-anchor: middle; dominant-baseline: middle; font-size: 12px;" y="886" x="274.989990234375" id="rel80" class="er relationshipLabel">loads</text><rect height="13.333333969116211" width="36.370445251464844" y="1001.8609209060669" x="102.7315788269043" class="er relationshipLabelBox"></rect><text style="text-anchor: middle; dominant-baseline: middle; font-size: 12px;" y="1008.527587890625" x="120.91680145263672" id="rel81" class="er relationshipLabel">checks</text><rect height="13.333333969116211" width="48.768882751464844" y="1022.9462480545044" x="154.5702247619629" class="er relationshipLabelBox"></rect><text style="text-anchor: middle; dominant-baseline: middle; font-size: 12px;" y="1029.6129150390625" x="178.9546661376953" id="rel82" class="er relationshipLabel">validates</text><rect height="13.333333969116211" width="99.625" y="1032.279622077942" x="239.92703247070312" class="er relationshipLabelBox"></rect><text style="text-anchor: middle; dominant-baseline: middle; font-size: 12px;" y="1038.9462890625" x="289.7395324707031" id="rel83" class="er relationshipLabel">asks_for_password</text><rect height="13.333333969116211" width="117.79232025146484" y="1011.3094682693481" x="335.34807205200195" class="er relationshipLabelBox"></rect><text style="text-anchor: middle; dominant-baseline: middle; font-size: 12px;" y="1017.9761352539062" x="394.2442321777344" id="rel84" class="er relationshipLabel">decrypts_and_mounts</text><rect height="13.333333969116211" width="28.30208396911621" y="998.5091142654419" x="467.01613330841064" class="er relationshipLabelBox"></rect><text style="text-anchor: middle; dominant-baseline: middle; font-size: 12px;" y="1005.17578125" x="481.16717529296875" id="rel85" class="er relationshipLabel">loads</text><rect height="13.333333969116211" width="30.67513084411621" y="1170.000325202942" x="592.7874345779419" class="er relationshipLabelBox"></rect><text style="text-anchor: middle; dominant-baseline: middle; font-size: 12px;" y="1176.6669921875" x="608.125" id="rel86" class="er relationshipLabel">starts</text><rect height="13.333333969116211" width="52.419273376464844" y="1315.333333015442" x="581.9153633117676" class="er relationshipLabelBox"></rect><text style="text-anchor: middle; dominant-baseline: middle; font-size: 12px;" y="1322" x="608.125" id="rel87" class="er relationshipLabel">initializes</text></svg>