/* XPM */
static char * stick_active_xpm[] = {
"11 11 2 1",
" 	c #1C1C1E",
".	c #666666",
"           ",
"           ",
"           ",
"     .  .  ",
"     ....  ",
"  .......  ",
"     ....  ",
"     .  .  ",
"           ",
"           ",
"           "};
