/* XPM */
static char *shade_prelight_png[] = {
/* columns rows colors chars-per-pixel */
"34 36 43 1 ",
"  c #0B0C0C",
". c #0F1111",
"X c #1A1C1D",
"o c #1C1E1F",
"O c #1B1F20",
"+ c #1C2021",
"@ c #1D2122",
"# c #1F2222",
"$ c #242726",
"% c #222728",
"& c #242829",
"* c #262A2C",
"= c #282C2E",
"- c #292D2F",
"; c #2A2E30",
": c #2B2F31",
"> c #2C3032",
", c #2C3133",
"< c #2D3234",
"1 c #2D3335",
"2 c #2E3436",
"3 c #2F3537",
"4 c #303638",
"5 c #303739",
"6 c #313739",
"7 c #32383A",
"8 c #32393B",
"9 c #333A3C",
"0 c #343B3D",
"q c #353C3E",
"w c #363D3F",
"e c #373E40",
"r c #3A4042",
"t c #3E4242",
"y c #3C4345",
"u c #3F4547",
"i c #9B9C9B",
"p c #A4A5A4",
"a c #B2B4B2",
"s c #B5B7B6",
"d c #DADAD8",
"f c #EEEEEC",
"g c None",
/* pixels */
"gggggggggggggggggggggggggggggggggg",
"g&+OOOOOOOOOOOOOOOOOOOOOOOOOOOO+&g",
"&%yuuuuuuuuuuuuuuuuuuuuuuuuuuuuy%&",
"+rwqqqqqqqqqqqqqqqqqqqqqqqqqqqqwe+",
"Oq000000000000000000000000000000qO",
"O00000000000000000000000000000000O",
"O99999999999999999999999999999999O",
"O99999999999999999999999999999999O",
"O88888888888888888888888888888888O",
"O88888888888888888888888888888888O",
"O77777777777777777777777777777777O",
"O77777777777777777777777777777777O",
"O66666666666666666666666666666666O",
"O66666666666666666666666666666666O",
"O555555555555555$$555555555555555O",
"O55555555555555$ii$55555555555555O",
"O4444444444444$tffi$4444444444444O",
"O444444444444$iffffi$444444444444O",
"O33333333333#tffffffi#33333333333O",
"O33333333333pfffddfffp33333333333O",
"O22222222222sffa22affs22222222222O",
"O222222222222sa2222as222222222222O",
"O11111111111111111111111111111111O",
"O11111111111111111111111111111111O",
"O<<<<<<<<<<<<<<<<<<<<<<<<<<<<<<<<O",
"O<<<<<<<<<<<<<<<<<<<<<<<<<<<<<<<<O",
"O,,,,,,,,,,,,,,,,,,,,,,,,,,,,,,,,O",
"O,,,,,,,,,,,,,,,,,,,,,,,,,,,,,,,,O",
"O>>>>>>>>>>>>>>>>>>>>>>>>>>>>>>>>O",
"O>>>>>>>>>>>>>>>>>>>>>>>>>>>>>>>>O",
"O::::::::::::::::::::::::::::::::O",
"O::::::::::::::::::::::::::::::::O",
"+-;;;;;;;;;;;;;;;;;;;;;;;;;;;;;;=@",
"&O*;;;;;;;;;;;;;;;;;;;;;;;;;;;;*X&",
"go.                            .og",
"gggggggggggggggggggggggggggggggggg"
};
