/* XPM */
static char *stick_toggled_inactive_png[] = {
/* columns rows colors chars-per-pixel */
"34 36 11 1 ",
"  c #33393B",
". c #393F3F",
"X c #434949",
"o c #454A4A",
"O c #484E4E",
"+ c #545958",
"@ c #6B6F6F",
"# c #7F8282",
"$ c #8B8E8D",
"% c #939695",
"& c None",
/* pixels */
"&&&&&&&&&&&&&&&&&&&&&&&&&&&&&&&&&&",
"                                  ",
"                                  ",
"                                  ",
"                                  ",
"                                  ",
"                                  ",
"                                  ",
"                                  ",
"                                  ",
"                                  ",
"                                  ",
"                                  ",
"              X@$$@X              ",
"             +%%%%%%+             ",
"            X%%O..O%%X            ",
"            @%Oo##oO%@            ",
"            $%.#%%#.%$            ",
"            $%.#%%#.%$            ",
"            @%Oo##oO%@            ",
"            X%%O..O%%X            ",
"             +%%%%%%+             ",
"              X@$$@X              ",
"                                  ",
"                                  ",
"                                  ",
"                                  ",
"                                  ",
"                                  ",
"                                  ",
"                                  ",
"                                  ",
"                                  ",
"                                  ",
"                                  ",
"&&&&&&&&&&&&&&&&&&&&&&&&&&&&&&&&&&"
};
