/* XPM */
static char *maximize_active_png[] = {
/* columns rows colors chars-per-pixel */
"34 36 14 1 ",
"  c #080809",
". c #101212",
"X c #101213",
"o c #19191A",
"O c #292E30",
"+ c #2C3133",
"@ c #3A3F40",
"# c #3B3F41",
"$ c #B9B9B7",
"% c #BABAB8",
"& c #C0C2C0",
"* c #C1C2C1",
"= c #EEEEEC",
"- c None",
/* pixels */
"----------------------------------",
"++++++++++++++++++++++++++++++++++",
"++++++++++++++++++++++++++++++++++",
"++++++++++++++++++++++++++++++++++",
"++++++++++++++++++++++++++++++++++",
"++++++++++++++++++++++++++++++++++",
"++++++++++++++++++++++++++++++++++",
"++++++++++++++++++++++++++++++++++",
"++++++++++++++++++++++++++++++++++",
"++++++++++++++++++++++++++++++++++",
"++++++++++++++++++++++++++++++++++",
"++++++++++++++++++++++++++++++++++",
"++++++++++++++++++++++++++++++++++",
"+++++++++++++.      X+++++++++++++",
"+++++++++++++%======$+++++++++++++",
"+++++++++++++========+++++++++++++",
"+++++++++++++==@++#==+++++++++++++",
"+++++++++++++==++++==+++++++++++++",
"+++++++++++++==O++O==+++++++++++++",
"+++++++++++++==o  o==+++++++++++++",
"+++++++++++++========+++++++++++++",
"+++++++++++++*======&+++++++++++++",
"++++++++++++++++++++++++++++++++++",
"++++++++++++++++++++++++++++++++++",
"++++++++++++++++++++++++++++++++++",
"++++++++++++++++++++++++++++++++++",
"++++++++++++++++++++++++++++++++++",
"++++++++++++++++++++++++++++++++++",
"++++++++++++++++++++++++++++++++++",
"++++++++++++++++++++++++++++++++++",
"++++++++++++++++++++++++++++++++++",
"++++++++++++++++++++++++++++++++++",
"++++++++++++++++++++++++++++++++++",
"----------------------------------",
"----------------------------------",
"----------------------------------"
};
