/* XPM */
static char *menu_prelight_png[] = {
/* columns rows colors chars-per-pixel */
"34 36 36 1 ",
"  c #0A0C0C",
". c #0B0C0C",
"X c #0F1111",
"o c #1A1C1D",
"O c #1C1E1F",
"+ c #1B1F20",
"@ c #1C2021",
"# c #1D2122",
"$ c #222728",
"% c #242829",
"& c #262A2C",
"* c #282C2E",
"= c #292D2F",
"- c #2A2E30",
"; c #2B2F31",
": c #2C3032",
"> c #2C3133",
", c #2D3234",
"< c #2D3335",
"1 c #2E3436",
"2 c #2F3537",
"3 c #303638",
"4 c #303739",
"5 c #313739",
"6 c #32383A",
"7 c #32393B",
"8 c #333A3C",
"9 c #343B3D",
"0 c #353C3E",
"q c #363D3F",
"w c #373E40",
"e c #3A4042",
"r c #3C4345",
"t c #3F4547",
"y c #EEEEEC",
"u c None",
/* pixels */
"uuuuuuuuuuuuuuuuuuuuuuuuuuuuuuuuuu",
"u%@++++++++++++++++++++++++++++@%u",
"%$rttttttttttttttttttttttttttttr$%",
"@eq0000000000000000000000000000qw@",
"+09999999999999999999999999999990+",
"+99999999999999999999999999999999+",
"+88888888888888888888888888888888+",
"+88888888888888888888888888888888+",
"+77777777777777777777777777777777+",
"+77777777777777777777777777777777+",
"+66666666666666666666666666666666+",
"+666666666666        666666666666+",
"+555555555555yyyyyyyy555555555555+",
"+555555555555yyyyyyyy555555555555+",
"+44444444444444444444444444444444+",
"+444444444444        444444444444+",
"+333333333333yyyyyyyy333333333333+",
"+333333333333yyyyyyyy333333333333+",
"+22222222222222222222222222222222+",
"+222222222222        222222222222+",
"+111111111111yyyyyyyy111111111111+",
"+111111111111yyyyyyyy111111111111+",
"+<<<<<<<<<<<<<<<<<<<<<<<<<<<<<<<<+",
"+<<<<<<<<<<<<<<<<<<<<<<<<<<<<<<<<+",
"+,,,,,,,,,,,,,,,,,,,,,,,,,,,,,,,,+",
"+,,,,,,,,,,,,,,,,,,,,,,,,,,,,,,,,+",
"+>>>>>>>>>>>>>>>>>>>>>>>>>>>>>>>>+",
"+>>>>>>>>>>>>>>>>>>>>>>>>>>>>>>>>+",
"+::::::::::::::::::::::::::::::::+",
"+::::::::::::::::::::::::::::::::+",
"+;;;;;;;;;;;;;;;;;;;;;;;;;;;;;;;;+",
"+;;;;;;;;;;;;;;;;;;;;;;;;;;;;;;;;+",
"@=------------------------------*#",
"%+&----------------------------&o%",
"uOX............................XOu",
"uuuuuuuuuuuuuuuuuuuuuuuuuuuuuuuuuu"
};
