/* XPM */
static char *title_1_inactive[] = {
/* columns rows colors chars-per-pixel */
"1 38 4 1 ",
"  c #202425",
". c #2C302D",
"X c #33393B",
"o c #404547",
/* pixels */
".",
"o",
"X",
"X",
"X",
"X",
"X",
"X",
"X",
"X",
"X",
"X",
"X",
"X",
"X",
"X",
"X",
"X",
"X",
"X",
"X",
"X",
"X",
"X",
"X",
"X",
"X",
"X",
"X",
"X",
"X",
"X",
"X",
"X",
"X",
"X",
"X",
" "
};
