/* XPM */
static char * title_3_active_xpm[] = {
"2 16 3 1",
" 	c None",
".	c #484848",
"+	c #444444",
"..",
"++",
"++",
"++",
"++",
"++",
"++",
"++",
"++",
"++",
"++",
"++",
"++",
"++",
"++",
"++"};
