/* XPM */
static char * top_right_inactive_xpm[] = {
"2 16 4 1",
" 	c None",
".	c #393939",
"+	c #303030",
"@	c #444444",
". ",
"+.",
"@.",
"@.",
"@.",
"@.",
"@.",
"@.",
"@.",
"@.",
"@.",
"@.",
"@.",
"@.",
"@.",
"@."};
