/* XPM */
static char *close_prelight_png[] = {
/* columns rows colors chars-per-pixel */
"34 36 71 1 ",
"  c #0B0C0C",
". c #0F1111",
"X c #121415",
"o c #121515",
"O c #131617",
"+ c #141617",
"@ c #1A1C1D",
"# c #1C1E1F",
"$ c #1B1F20",
"% c #1C2021",
"& c #1D2122",
"* c #242524",
"= c #252626",
"- c #252726",
"; c #242627",
": c #252727",
"> c #222728",
", c #242829",
"< c #262828",
"1 c #262A2C",
"2 c #282C2E",
"3 c #292D2F",
"4 c #2A2E30",
"5 c #2B2F31",
"6 c #2C3032",
"7 c #2C3133",
"8 c #2D3234",
"9 c #2D3335",
"0 c #2E3335",
"q c #2E3436",
"w c #2F3537",
"e c #303638",
"r c #303739",
"t c #313739",
"y c #32383A",
"u c #32393B",
"i c #333A3C",
"p c #343B3D",
"a c #353C3E",
"s c #363D3F",
"d c #373E40",
"f c #3A4042",
"g c #3D4343",
"h c #3C4345",
"j c #3E4345",
"k c #3F4545",
"l c #3F4446",
"z c #3F4547",
"x c #414647",
"c c #BABBB9",
"v c #BCBDBB",
"b c #C0C0C0",
"n c #C0C1C1",
"m c #C1C1C1",
"M c #C1C2C1",
"N c #C2C2C1",
"B c #C3C3C2",
"V c #C6C6C4",
"C c #C7C7C5",
"Z c #C7C7C6",
"A c #C6C7C7",
"S c #C8C8C6",
"D c #C7C8C8",
"F c #CBCBC9",
"G c #CCCCCA",
"H c #CCCDCC",
"J c #CDCDCC",
"K c #CDCECC",
"L c #CECFCD",
"P c #EEEEEC",
"I c None",
/* pixels */
"IIIIIIIIIIIIIIIIIIIIIIIIIIIIIIIIII",
"I,%$$$$$$$$$$$$$$$$$$$$$$$$$$$$%,I",
",>hzzzzzzzzzzzzzzzzzzzzzzzzzzzzh>,",
"%fsaaaaaaaaaaaaaaaaaaaaaaaaaaaasd%",
"$appppppppppppppppppppppppppppppa$",
"$pppppppppppppppppppppppppppppppp$",
"$iiiiiiiiiiiiiiiiiiiiiiiiiiiiiiii$",
"$iiiiiiiiiiiiiiiiiiiiiiiiiiiiiiii$",
"$uuuuuuuuuuuuuuuuuuuuuuuuuuuuuuuu$",
"$uuuuuuuuuuuuuuuuuuuuuuuuuuuuuuuu$",
"$yyyyyyyyyyyyyyyyyyyyyyyyyyyyyyyy$",
"$yyyyyyyyyyyyyyyyyyyyyyyyyyyyyyyy$",
"$tttttttttttttttttttttttttttttttt$",
"$ttttttttttttOo0tt0X+tttttttttttt$",
"$rrrrrrrrrrrrvb=99;mcrrrrrrrrrrrr$",
"$rrrrrrrrrrrrDPC==SPArrrrrrrrrrrr$",
"$eeeeeeeeeeeexLPCCPKxeeeeeeeeeeee$",
"$eeeeeeeeeeeeegZPPGjeeeeeeeeeeeee$",
"$wwwwwwwwwwww7*VPPF<7wwwwwwwwwwww$",
"$wwwwwwwwwwww-SPJJPS:wwwwwwwwwwww$",
"$qqqqqqqqqqqqBPKkkHPNqqqqqqqqqqqq$",
"$qqqqqqqqqqqqMDlqqkDnqqqqqqqqqqqq$",
"$99999999999999999999999999999999$",
"$99999999999999999999999999999999$",
"$88888888888888888888888888888888$",
"$88888888888888888888888888888888$",
"$77777777777777777777777777777777$",
"$77777777777777777777777777777777$",
"$66666666666666666666666666666666$",
"$66666666666666666666666666666666$",
"$55555555555555555555555555555555$",
"$55555555555555555555555555555555$",
"%34444444444444444444444444444442&",
",$144444444444444444444444444441@,",
"I#.                            .#I",
"IIIIIIIIIIIIIIIIIIIIIIIIIIIIIIIIII"
};
