/* XPM */
static char *maximize_inactive_png[] = {
/* columns rows colors chars-per-pixel */
"34 36 8 1 ",
"  c #33393B",
". c #393F41",
"X c #3A4042",
"o c #7B7E7F",
"O c #7C7F7F",
"+ c #7B7F80",
"@ c #919494",
"# c None",
/* pixels */
"##################################",
"                                  ",
"                                  ",
"                                  ",
"                                  ",
"                                  ",
"                                  ",
"                                  ",
"                                  ",
"                                  ",
"                                  ",
"                                  ",
"                                  ",
"                                  ",
"             O@@@@@@+             ",
"             @@@@@@@@             ",
"             @@.  X@@             ",
"             @@    @@             ",
"             @@    @@             ",
"             @@X  X@@             ",
"             @@@@@@@@             ",
"             +@@@@@@o             ",
"                                  ",
"                                  ",
"                                  ",
"                                  ",
"                                  ",
"                                  ",
"                                  ",
"                                  ",
"                                  ",
"                                  ",
"                                  ",
"                                  ",
"                                  ",
"##################################"
};
