/* XPM */
static char *shade_pressed_png[] = {
/* columns rows colors chars-per-pixel */
"34 36 17 1 ",
"  c #1B1F20",
". c #1D2122",
"X c #1D2123",
"o c #1F2222",
"O c #242726",
"+ c #222728",
"@ c #242829",
"# c #24282A",
"$ c #25292B",
"% c #393C3C",
"& c #9B9C9B",
"* c #A4A5A4",
"= c #B2B4B2",
"- c #B5B7B6",
"; c #DADAD8",
": c #EEEEEC",
"> c None",
/* pixels */
">>>>>>>>>>>>>>>>>>>>>>>>>>>>>>>>>>",
">+.                            .@>",
"+X#$$$$$$$$$$$$$$$$$$$$$$$$$$$$#X@",
".#$$$$$$$$$$$$$$$$$$$$$$$$$$$$$$#.",
" $$$$$$$$$$$$$$$$$$$$$$$$$$$$$$$$ ",
" $$$$$$$$$$$$$$$$$$$$$$$$$$$$$$$$ ",
" $$$$$$$$$$$$$$$$$$$$$$$$$$$$$$$$ ",
" $$$$$$$$$$$$$$$$$$$$$$$$$$$$$$$$ ",
" $$$$$$$$$$$$$$$$$$$$$$$$$$$$$$$$ ",
" $$$$$$$$$$$$$$$$$$$$$$$$$$$$$$$$ ",
" $$$$$$$$$$$$$$$$$$$$$$$$$$$$$$$$ ",
" $$$$$$$$$$$$$$$$$$$$$$$$$$$$$$$$ ",
" $$$$$$$$$$$$$$$$$$$$$$$$$$$$$$$$ ",
" $$$$$$$$$$$$$$$$$$$$$$$$$$$$$$$$ ",
" $$$$$$$$$$$$$$$OO$$$$$$$$$$$$$$$ ",
" $$$$$$$$$$$$$$O&&O$$$$$$$$$$$$$$ ",
" $$$$$$$$$$$$$O%::&O$$$$$$$$$$$$$ ",
" $$$$$$$$$$$$O&::::&O$$$$$$$$$$$$ ",
" $$$$$$$$$$$o%::::::&o$$$$$$$$$$$ ",
" $$$$$$$$$$$*:::;;:::*$$$$$$$$$$$ ",
" $$$$$$$$$$$-::=$$=::-$$$$$$$$$$$ ",
" $$$$$$$$$$$$-=$$$$=-$$$$$$$$$$$$ ",
" $$$$$$$$$$$$$$$$$$$$$$$$$$$$$$$$ ",
" $$$$$$$$$$$$$$$$$$$$$$$$$$$$$$$$ ",
" $$$$$$$$$$$$$$$$$$$$$$$$$$$$$$$$ ",
" $$$$$$$$$$$$$$$$$$$$$$$$$$$$$$$$ ",
" $$$$$$$$$$$$$$$$$$$$$$$$$$$$$$$$ ",
" $$$$$$$$$$$$$$$$$$$$$$$$$$$$$$$$ ",
" $$$$$$$$$$$$$$$$$$$$$$$$$$$$$$$$ ",
" $$$$$$$$$$$$$$$$$$$$$$$$$$$$$$$$ ",
" $$$$$$$$$$$$$$$$$$$$$$$$$$$$$$$$ ",
" $$$$$$$$$$$$$$$$$$$$$$$$$$$$$$$$ ",
".#$$$$$$$$$$$$$$$$$$$$$$$$$$$$$$#.",
"@X#$$$$$$$$$$$$$$$$$$$$$$$$$$$$#X@",
">@.                            .@>",
">>>>>>>>>>>>>>>>>>>>>>>>>>>>>>>>>>"
};
