/* XPM */
static char *stick_pressed_png[] = {
/* columns rows colors chars-per-pixel */
"34 36 38 1 ",
"  c #181A1B",
". c #1B1F20",
"X c #1C1E20",
"o c #1D2122",
"O c #1D2123",
"+ c #212426",
"@ c #222626",
"# c #222728",
"$ c #242829",
"% c #272828",
"& c #24282A",
"* c #25292B",
"= c #262B2C",
"- c #262B2D",
"; c #2B2F30",
": c #2E3234",
"> c #313535",
", c #333434",
"< c #35393B",
"1 c #353A3A",
"2 c #3E4041",
"3 c #3E4244",
"4 c #404446",
"5 c #494C4D",
"6 c #505050",
"7 c #505354",
"8 c #505455",
"9 c #5C6261",
"0 c #5D6262",
"q c #616364",
"w c #626464",
"e c #6D7070",
"r c #8A8B8A",
"t c #DADAD9",
"y c #DCDCDA",
"u c #DEDFDD",
"i c #EEEEEC",
"p c None",
/* pixels */
"pppppppppppppppppppppppppppppppppp",
"p#o............................o$p",
"#O&****************************&O$",
"o&******************************&o",
".********************************.",
".********************************.",
".********************************.",
".********************************.",
".********************************.",
".********************************.",
".********************************.",
".**************@  @-*************.",
".*************%quur%;************.",
".************2iiiiii6=***********.",
".************ii0**0ii>***********.",
".***********5i9****9iw***********.",
".***********ti******it***********.",
".***********yi1****1iy***********.",
".***********7i,1**1,ie***********.",
".************ii,X+,ii<***********.",
".*************iiiiii4************.",
".*************:3uu8:*************.",
".********************************.",
".********************************.",
".********************************.",
".********************************.",
".********************************.",
".********************************.",
".********************************.",
".********************************.",
".********************************.",
".********************************.",
"o&******************************&o",
"$O&****************************&O$",
"p$o............................o$p",
"pppppppppppppppppppppppppppppppppp"
};
