/* XPM */
static char *stick_toggled_active_png[] = {
/* columns rows colors chars-per-pixel */
"34 36 35 1 ",
"  c #0C0D0D",
". c #101111",
"X c #171919",
"o c #222626",
"O c #272828",
"+ c #2C3133",
"@ c #2F3434",
"# c #333434",
"$ c #333635",
"% c #353A3A",
"& c #3A3D3D",
"* c #383E3E",
"= c #383F3F",
"- c #3D4444",
"; c #4E5252",
": c #505050",
"> c #525757",
", c #525858",
"< c #585C5B",
"1 c #5C6261",
"2 c #727776",
"3 c #8A8B8A",
"4 c #8C8C8B",
"5 c #9DA09F",
"6 c #A0A2A1",
"7 c #BCBCBB",
"8 c #BEBFBD",
"9 c #C5C6C5",
"0 c #C7C8C6",
"q c #DADAD8",
"w c #DADAD9",
"e c #DCDCDA",
"r c #DEDFDD",
"t c #EEEEEC",
"y c None",
/* pixels */
"yyyyyyyyyyyyyyyyyyyyyyyyyyyyyyyyyy",
"++++++++++++++++++++++++++++++++++",
"++++++++++++++++++++++++++++++++++",
"++++++++++++++++++++++++++++++++++",
"++++++++++++++++++++++++++++++++++",
"++++++++++++++++++++++++++++++++++",
"++++++++++++++++++++++++++++++++++",
"++++++++++++++++++++++++++++++++++",
"++++++++++++++++++++++++++++++++++",
"++++++++++++++++++++++++++++++++++",
"++++++++++++++++++++++++++++++++++",
"++++++++++++++++++++++++++++++++++",
"++++++++++++++=o..o=++++++++++++++",
"+++++++++++++@O3qq3O@+++++++++++++",
"++++++++++++*:tttttt:*++++++++++++",
"++++++++++++&tt<XX<tt&++++++++++++",
"++++++++++++4t1$77$1t4++++++++++++",
"++++++++++++wt-8tt8-tw++++++++++++",
"++++++++++++et%9tt9%te++++++++++++",
"++++++++++++5t#;00;#t5++++++++++++",
"++++++++++++,tt#  #tt,++++++++++++",
"+++++++++++++2tttttt2+++++++++++++",
"++++++++++++++>6rr6>++++++++++++++",
"++++++++++++++++++++++++++++++++++",
"++++++++++++++++++++++++++++++++++",
"++++++++++++++++++++++++++++++++++",
"++++++++++++++++++++++++++++++++++",
"++++++++++++++++++++++++++++++++++",
"++++++++++++++++++++++++++++++++++",
"++++++++++++++++++++++++++++++++++",
"++++++++++++++++++++++++++++++++++",
"++++++++++++++++++++++++++++++++++",
"++++++++++++++++++++++++++++++++++",
"yyyyyyyyyyyyyyyyyyyyyyyyyyyyyyyyyy",
"yyyyyyyyyyyyyyyyyyyyyyyyyyyyyyyyyy",
"yyyyyyyyyyyyyyyyyyyyyyyyyyyyyyyyyy"
};
