/* XPM */
static char *close_inactive_png[] = {
/* columns rows colors chars-per-pixel */
"34 36 18 1 ",
"  c #33393B",
". c #3B4042",
"X c #3B4143",
"o c #3C4143",
"O c #3C4243",
"+ c #3C4244",
"@ c #7B7E7F",
"# c #7A7F7F",
"$ c #7C7F7F",
"% c #7E8182",
"& c #7D8282",
"* c #7F8283",
"= c #808484",
"- c #818484",
"; c #828585",
": c #828686",
"> c #919494",
", c None",
/* pixels */
",,,,,,,,,,,,,,,,,,,,,,,,,,,,,,,,,,",
"                                  ",
"                                  ",
"                                  ",
"                                  ",
"                                  ",
"                                  ",
"                                  ",
"                                  ",
"                                  ",
"                                  ",
"                                  ",
"                                  ",
"                                  ",
"             $%o  X*@             ",
"             %>-oo;>&             ",
"             o;>-->-o             ",
"              .=>>:O              ",
"              .=>>:+              ",
"             o;>-->;o             ",
"             *>;oo->%             ",
"             @%X  o%#             ",
"                                  ",
"                                  ",
"                                  ",
"                                  ",
"                                  ",
"                                  ",
"                                  ",
"                                  ",
"                                  ",
"                                  ",
"                                  ",
"                                  ",
"                                  ",
",,,,,,,,,,,,,,,,,,,,,,,,,,,,,,,,,,"
};
