/* XPM */
static char *close_pressed_png[] = {
/* columns rows colors chars-per-pixel */
"34 36 24 1 ",
"  c #1B1F20",
". c #1D2122",
"X c #1D2123",
"o c #222728",
"O c #242829",
"+ c #24282A",
"@ c #25292B",
"# c #363A3A",
"$ c #373A3B",
"% c #373A3C",
"& c #383B3D",
"* c #383C3E",
"= c #BEBFBE",
"- c #BFC0BE",
"; c #C0C1C0",
": c #C5C5C5",
"> c #C5C6C6",
", c #C6C7C6",
"< c #CBCBCA",
"1 c #CBCCCA",
"2 c #CCCDCB",
"3 c #CFCFCE",
"4 c #EEEEEC",
"5 c None",
/* pixels */
"5555555555555555555555555555555555",
"5o.                            .O5",
"oX+@@@@@@@@@@@@@@@@@@@@@@@@@@@@+XO",
".+@@@@@@@@@@@@@@@@@@@@@@@@@@@@@@+.",
" @@@@@@@@@@@@@@@@@@@@@@@@@@@@@@@@ ",
" @@@@@@@@@@@@@@@@@@@@@@@@@@@@@@@@ ",
" @@@@@@@@@@@@@@@@@@@@@@@@@@@@@@@@ ",
" @@@@@@@@@@@@@@@@@@@@@@@@@@@@@@@@ ",
" @@@@@@@@@@@@@@@@@@@@@@@@@@@@@@@@ ",
" @@@@@@@@@@@@@@@@@@@@@@@@@@@@@@@@ ",
" @@@@@@@@@@@@@@@@@@@@@@@@@@@@@@@@ ",
" @@@@@@@@@@@@@@@@@@@@@@@@@@@@@@@@ ",
" @@@@@@@@@@@@@@@@@@@@@@@@@@@@@@@@ ",
" @@@@@@@@@@@@@@@@@@@@@@@@@@@@@@@@ ",
" @@@@@@@@@@@@;>$@@%,-@@@@@@@@@@@@ ",
" @@@@@@@@@@@@>41$$24:@@@@@@@@@@@@ ",
" @@@@@@@@@@@@$241141$@@@@@@@@@@@@ ",
" @@@@@@@@@@@@@#<443&@@@@@@@@@@@@@ ",
" @@@@@@@@@@@@@#<443*@@@@@@@@@@@@@ ",
" @@@@@@@@@@@@$241142$@@@@@@@@@@@@ ",
" @@@@@@@@@@@@,42$$14>@@@@@@@@@@@@ ",
" @@@@@@@@@@@@->%@@$>=@@@@@@@@@@@@ ",
" @@@@@@@@@@@@@@@@@@@@@@@@@@@@@@@@ ",
" @@@@@@@@@@@@@@@@@@@@@@@@@@@@@@@@ ",
" @@@@@@@@@@@@@@@@@@@@@@@@@@@@@@@@ ",
" @@@@@@@@@@@@@@@@@@@@@@@@@@@@@@@@ ",
" @@@@@@@@@@@@@@@@@@@@@@@@@@@@@@@@ ",
" @@@@@@@@@@@@@@@@@@@@@@@@@@@@@@@@ ",
" @@@@@@@@@@@@@@@@@@@@@@@@@@@@@@@@ ",
" @@@@@@@@@@@@@@@@@@@@@@@@@@@@@@@@ ",
" @@@@@@@@@@@@@@@@@@@@@@@@@@@@@@@@ ",
" @@@@@@@@@@@@@@@@@@@@@@@@@@@@@@@@ ",
".+@@@@@@@@@@@@@@@@@@@@@@@@@@@@@@+.",
"OX+@@@@@@@@@@@@@@@@@@@@@@@@@@@@+XO",
"5O.                            .O5",
"5555555555555555555555555555555555"
};
