/* XPM */
static char * bottom_left_active_xpm[] = {
"16 16 2 1",
" 	c None",
".	c #1C1C1E",
"..              ",
"..              ",
"..              ",
"..              ",
"..              ",
"..              ",
"..              ",
"..              ",
"..              ",
"..              ",
"..              ",
"..              ",
"..              ",
"..              ",
"................",
"................"};
