/* XPM */
static char *close_active_png[] = {
/* columns rows colors chars-per-pixel */
"34 36 37 1 ",
"  c #0F1011",
". c #0F1111",
"X c #101212",
"o c #101213",
"O c #212222",
"+ c #222323",
"@ c #222324",
"# c #232424",
"$ c #232524",
"% c #242525",
"& c #292D2F",
"* c #292E2F",
"= c #2C3133",
"- c #3A3E3F",
"; c #3A3F41",
": c #3D4243",
"> c #BABAB8",
", c #BBBCBA",
"< c #C0C0BF",
"1 c #C0C1C0",
"2 c #C1C1C0",
"3 c #C0C2C0",
"4 c #C1C2C1",
"5 c #C2C3C2",
"6 c #C5C5C4",
"7 c #C6C6C5",
"8 c #C6C7C5",
"9 c #C5C6C6",
"0 c #C6C7C6",
"q c #C7C7C6",
"w c #C7C8C7",
"e c #CACAC8",
"r c #CBCBC9",
"t c #CCCDCB",
"y c #CDCECC",
"u c #EEEEEC",
"i c None",
/* pixels */
"iiiiiiiiiiiiiiiiiiiiiiiiiiiiiiiiii",
"==================================",
"==================================",
"==================================",
"==================================",
"==================================",
"==================================",
"==================================",
"==================================",
"==================================",
"==================================",
"==================================",
"==================================",
"=============X.*==& o=============",
"=============,<+**@2>=============",
"=============0u7++qu9=============",
"=============:yu77ut:=============",
"==============-8uur;==============",
"=============*O6uue%*=============",
"=============#quttuq$=============",
"=============5uy::tu4=============",
"=============3w:==:w1=============",
"==================================",
"==================================",
"==================================",
"==================================",
"==================================",
"==================================",
"==================================",
"==================================",
"==================================",
"==================================",
"==================================",
"iiiiiiiiiiiiiiiiiiiiiiiiiiiiiiiiii",
"iiiiiiiiiiiiiiiiiiiiiiiiiiiiiiiiii",
"iiiiiiiiiiiiiiiiiiiiiiiiiiiiiiiiii"
};
