/* XPM */
static char *stick_prelight_png[] = {
/* columns rows colors chars-per-pixel */
"34 36 58 1 ",
"  c #0B0C0C",
". c #0C0D0D",
"X c #0F1111",
"o c #101111",
"O c #1A1C1D",
"+ c #1C1E1F",
"@ c #1B1F20",
"# c #1C2021",
"$ c #1D2122",
"% c #222626",
"& c #222728",
"* c #242829",
"= c #272828",
"- c #262A2C",
"; c #282C2E",
": c #292D2F",
"> c #2A2E30",
", c #2B2F31",
"< c #2C3032",
"1 c #2C3133",
"2 c #2D3234",
"3 c #2D3335",
"4 c #2F3434",
"5 c #2E3436",
"6 c #2F3537",
"7 c #333434",
"8 c #303638",
"9 c #303739",
"0 c #313739",
"q c #32383A",
"w c #32393B",
"e c #353A3A",
"r c #333A3C",
"t c #343B3D",
"y c #353C3E",
"u c #363D3F",
"i c #3A3D3D",
"p c #383E3E",
"a c #383F3F",
"s c #373E40",
"d c #3A4042",
"f c #3C4345",
"g c #3F4547",
"h c #505050",
"j c #525757",
"k c #525858",
"l c #5C6261",
"z c #5D6262",
"x c #727776",
"c c #8A8B8A",
"v c #8C8C8B",
"b c #9DA09F",
"n c #A0A2A1",
"m c #DADAD9",
"M c #DCDCDA",
"N c #DEDFDD",
"B c #EEEEEC",
"V c None",
/* pixels */
"VVVVVVVVVVVVVVVVVVVVVVVVVVVVVVVVVV",
"V*#@@@@@@@@@@@@@@@@@@@@@@@@@@@@#*V",
"*&fggggggggggggggggggggggggggggf&*",
"#duyyyyyyyyyyyyyyyyyyyyyyyyyyyyus#",
"@ytttttttttttttttttttttttttttttty@",
"@tttttttttttttttttttttttttttttttt@",
"@rrrrrrrrrrrrrrrrrrrrrrrrrrrrrrrr@",
"@rrrrrrrrrrrrrrrrrrrrrrrrrrrrrrrr@",
"@wwwwwwwwwwwwwwwwwwwwwwwwwwwwwwww@",
"@wwwwwwwwwwwwwwwwwwwwwwwwwwwwwwww@",
"@qqqqqqqqqqqqqqqqqqqqqqqqqqqqqqqq@",
"@qqqqqqqqqqqqqa%oo%aqqqqqqqqqqqqq@",
"@0000000000004=cNNc=4000000000000@",
"@00000000000phBBBBBBhp00000000000@",
"@99999999999iBBz99zBBi99999999999@",
"@99999999999vBl9999lBv99999999999@",
"@88888888888mB888888Bm88888888888@",
"@88888888888MBe8888eBM88888888888@",
"@66666666666bB7e66e7Bb66666666666@",
"@66666666666kBB7..7BBk66666666666@",
"@555555555555xBBBBBBx555555555555@",
"@5555555555555jnNNnj5555555555555@",
"@33333333333333333333333333333333@",
"@33333333333333333333333333333333@",
"@22222222222222222222222222222222@",
"@22222222222222222222222222222222@",
"@11111111111111111111111111111111@",
"@11111111111111111111111111111111@",
"@<<<<<<<<<<<<<<<<<<<<<<<<<<<<<<<<@",
"@<<<<<<<<<<<<<<<<<<<<<<<<<<<<<<<<@",
"@,,,,,,,,,,,,,,,,,,,,,,,,,,,,,,,,@",
"@,,,,,,,,,,,,,,,,,,,,,,,,,,,,,,,,@",
"#:>>>>>>>>>>>>>>>>>>>>>>>>>>>>>>;$",
"*@->>>>>>>>>>>>>>>>>>>>>>>>>>>>-O*",
"V+X                            X+V",
"VVVVVVVVVVVVVVVVVVVVVVVVVVVVVVVVVV"
};
