/* XPM */
static char *top_left_inactive_png[] = {
/* columns rows colors chars-per-pixel */
"7 38 19 1 ",
"  c #1B1F20",
". c #1B2020",
"X c #1C2021",
"o c #1C2121",
"O c #1D2223",
"+ c #1E2223",
"@ c #202425",
"# c #282C2D",
"$ c #2E3335",
"% c #2F3436",
"& c #33393B",
"* c #343A3C",
"= c #353B3D",
"- c #393F41",
"; c #3A3F41",
": c #3A4041",
"> c #3C4143",
", c #3D4344",
"< c None",
/* pixels */
"<<<<<Oo",
"<<<O+%;",
"<<o#,-=",
"<O#>*&&",
"<+:&&&&",
"O$*&&&&",
"X&&&&&&",
".=&&&&&",
".&&&&&&",
" &&&&&&",
" &&&&&&",
" &&&&&&",
" &&&&&&",
" &&&&&&",
" &&&&&&",
" &&&&&&",
" &&&&&&",
" &&&&&&",
" &&&&&&",
" &&&&&&",
" &&&&&&",
" &&&&&&",
" &&&&&&",
" &&&&&&",
" &&&&&&",
" &&&&&&",
" &&&&&&",
" &&&&&&",
" &&&&&&",
" &&&&&&",
" &&&&&&",
" &&&&&&",
" &&&&&&",
" &&&&&&",
" &&&&&&",
" &&&&&&",
" &&&&&&",
" @@@@@@"
};
