/* XPM */
static char *shade_toggled_inactive_png[] = {
/* columns rows colors chars-per-pixel */
"34 36 8 1 ",
"  c #33393B",
". c #727675",
"X c #747877",
"o c #757978",
"O c #777A79",
"+ c #888C8B",
"@ c #919494",
"# c None",
/* pixels */
"##################################",
"                                  ",
"                                  ",
"                                  ",
"                                  ",
"                                  ",
"                                  ",
"                                  ",
"                                  ",
"                                  ",
"                                  ",
"                                  ",
"                                  ",
"                                  ",
"                                  ",
"             Oo    oO             ",
"            O@@o  o@@O            ",
"            X@@@++@@@X            ",
"             .@@@@@@.             ",
"              .@@@@.              ",
"               .@@.               ",
"                ..                ",
"                                  ",
"                                  ",
"                                  ",
"                                  ",
"                                  ",
"                                  ",
"                                  ",
"                                  ",
"                                  ",
"                                  ",
"                                  ",
"                                  ",
"                                  ",
"##################################"
};
