/* XPM */
static char *stick_toggled_prelight_png[] = {
/* columns rows colors chars-per-pixel */
"34 36 67 1 ",
"  c #0B0C0C",
". c #0C0D0D",
"X c #0F1111",
"o c #101111",
"O c #171919",
"+ c #1A1C1D",
"@ c #1C1E1F",
"# c #1B1F20",
"$ c #1C2021",
"% c #1D2122",
"& c #222626",
"* c #222728",
"= c #242829",
"- c #272828",
"; c #262A2C",
": c #282C2E",
"> c #292D2F",
", c #2A2E30",
"< c #2B2F31",
"1 c #2C3032",
"2 c #2C3133",
"3 c #2D3234",
"4 c #2D3335",
"5 c #2F3434",
"6 c #2E3436",
"7 c #2F3537",
"8 c #333434",
"9 c #333635",
"0 c #303638",
"q c #303739",
"w c #313739",
"e c #32383A",
"r c #32393B",
"t c #353A3A",
"y c #333A3C",
"u c #343B3D",
"i c #353C3E",
"p c #363D3F",
"a c #3A3D3D",
"s c #383E3E",
"d c #383F3F",
"f c #373E40",
"g c #3A4042",
"h c #3C4345",
"j c #3D4444",
"k c #3F4547",
"l c #4E5252",
"z c #505050",
"x c #525757",
"c c #525858",
"v c #585C5B",
"b c #5C6261",
"n c #727776",
"m c #8A8B8A",
"M c #8C8C8B",
"N c #9DA09F",
"B c #A0A2A1",
"V c #BCBCBB",
"C c #BEBFBD",
"Z c #C5C6C5",
"A c #C7C8C6",
"S c #DADAD8",
"D c #DADAD9",
"F c #DCDCDA",
"G c #DEDFDD",
"H c #EEEEEC",
"J c None",
/* pixels */
"JJJJJJJJJJJJJJJJJJJJJJJJJJJJJJJJJJ",
"J=$############################$=J",
"=*hkkkkkkkkkkkkkkkkkkkkkkkkkkkkh*=",
"$gpiiiiiiiiiiiiiiiiiiiiiiiiiiiipf$",
"#iuuuuuuuuuuuuuuuuuuuuuuuuuuuuuui#",
"#uuuuuuuuuuuuuuuuuuuuuuuuuuuuuuuu#",
"#yyyyyyyyyyyyyyyyyyyyyyyyyyyyyyyy#",
"#yyyyyyyyyyyyyyyyyyyyyyyyyyyyyyyy#",
"#rrrrrrrrrrrrrrrrrrrrrrrrrrrrrrrr#",
"#rrrrrrrrrrrrrrrrrrrrrrrrrrrrrrrr#",
"#eeeeeeeeeeeeeeeeeeeeeeeeeeeeeeee#",
"#eeeeeeeeeeeeeeeeeeeeeeeeeeeeeeee#",
"#wwwwwwwwwwwwwd&oo&dwwwwwwwwwwwww#",
"#wwwwwwwwwwww5-mSSm-5wwwwwwwwwwww#",
"#qqqqqqqqqqqszHHHHHHzsqqqqqqqqqqq#",
"#qqqqqqqqqqqaHHvOOvHHaqqqqqqqqqqq#",
"#00000000000MHb9VV9bHM00000000000#",
"#00000000000DHjCHHCjHD00000000000#",
"#77777777777FHtZHHZtHF77777777777#",
"#77777777777NH8lAAl8HN77777777777#",
"#66666666666cHH8..8HHc66666666666#",
"#666666666666nHHHHHHn666666666666#",
"#4444444444444xBGGBx4444444444444#",
"#44444444444444444444444444444444#",
"#33333333333333333333333333333333#",
"#33333333333333333333333333333333#",
"#22222222222222222222222222222222#",
"#22222222222222222222222222222222#",
"#11111111111111111111111111111111#",
"#11111111111111111111111111111111#",
"#<<<<<<<<<<<<<<<<<<<<<<<<<<<<<<<<#",
"#<<<<<<<<<<<<<<<<<<<<<<<<<<<<<<<<#",
"$>,,,,,,,,,,,,,,,,,,,,,,,,,,,,,,:%",
"=#;,,,,,,,,,,,,,,,,,,,,,,,,,,,,;+=",
"J@X                            X@J",
"JJJJJJJJJJJJJJJJJJJJJJJJJJJJJJJJJJ"
};
