/* XPM */
static char * C:\Users\Luiz\Desktop\win10\xfwm4\close_inactive_xpm[] = {
"45 32 5 1",
" 	c None",
".	c #CCCCCC",
"+	c #FFFFFF",
"@	c #9B9C9C",
"#	c #EBEBEB",
".............................................",
"+++++++++++++++++++++++++++++++++++++++++++++",
"+++++++++++++++++++++++++++++++++++++++++++++",
"+++++++++++++++++++++++++++++++++++++++++++++",
"+++++++++++++++++++++++++++++++++++++++++++++",
"+++++++++++++++++++++++++++++++++++++++++++++",
"+++++++++++++++++++++++++++++++++++++++++++++",
"+++++++++++++++++++++++++++++++++++++++++++++",
"+++++++++++++++++++++++++++++++++++++++++++++",
"+++++++++++++++++++++++++++++++++++++++++++++",
"++++++++++++++++++@#++++++#@+++++++++++++++++",
"++++++++++++++++++#@#++++#@#+++++++++++++++++",
"+++++++++++++++++++#@#++#@#++++++++++++++++++",
"++++++++++++++++++++#@##@#+++++++++++++++++++",
"+++++++++++++++++++++#@@#++++++++++++++++++++",
"+++++++++++++++++++++#@@#++++++++++++++++++++",
"++++++++++++++++++++#@##@#+++++++++++++++++++",
"+++++++++++++++++++#@#++#@#++++++++++++++++++",
"++++++++++++++++++#@#++++#@#+++++++++++++++++",
"++++++++++++++++++@#++++++#@+++++++++++++++++",
"+++++++++++++++++++++++++++++++++++++++++++++",
"+++++++++++++++++++++++++++++++++++++++++++++",
"+++++++++++++++++++++++++++++++++++++++++++++",
"+++++++++++++++++++++++++++++++++++++++++++++",
"+++++++++++++++++++++++++++++++++++++++++++++",
"+++++++++++++++++++++++++++++++++++++++++++++",
"+++++++++++++++++++++++++++++++++++++++++++++",
"+++++++++++++++++++++++++++++++++++++++++++++",
"+++++++++++++++++++++++++++++++++++++++++++++",
"+++++++++++++++++++++++++++++++++++++++++++++",
"+++++++++++++++++++++++++++++++++++++++++++++",
"+++++++++++++++++++++++++++++++++++++++++++++"};
