/* XPM */
static char * C:\Users\Luiz\Desktop\win10\xfwm4\close_prelight_xpm[] = {
"45 32 5 1",
" 	c None",
".	c #DF8B83 s active_color_1",
"+	c #E81123",
"@	c #FFFFFF",
"#	c #F16B76",
".............................................",
"+++++++++++++++++++++++++++++++++++++++++++++",
"+++++++++++++++++++++++++++++++++++++++++++++",
"+++++++++++++++++++++++++++++++++++++++++++++",
"+++++++++++++++++++++++++++++++++++++++++++++",
"+++++++++++++++++++++++++++++++++++++++++++++",
"+++++++++++++++++++++++++++++++++++++++++++++",
"+++++++++++++++++++++++++++++++++++++++++++++",
"+++++++++++++++++++++++++++++++++++++++++++++",
"+++++++++++++++++++++++++++++++++++++++++++++",
"++++++++++++++++++@#++++++#@+++++++++++++++++",
"++++++++++++++++++#@#++++#@#+++++++++++++++++",
"+++++++++++++++++++#@#++#@#++++++++++++++++++",
"++++++++++++++++++++#@##@#+++++++++++++++++++",
"+++++++++++++++++++++#@@#++++++++++++++++++++",
"+++++++++++++++++++++#@@#++++++++++++++++++++",
"++++++++++++++++++++#@##@#+++++++++++++++++++",
"+++++++++++++++++++#@+++#@#++++++++++++++++++",
"++++++++++++++++++#@+++++#@#+++++++++++++++++",
"++++++++++++++++++@+++++++#@+++++++++++++++++",
"+++++++++++++++++++++++++++++++++++++++++++++",
"+++++++++++++++++++++++++++++++++++++++++++++",
"+++++++++++++++++++++++++++++++++++++++++++++",
"+++++++++++++++++++++++++++++++++++++++++++++",
"+++++++++++++++++++++++++++++++++++++++++++++",
"+++++++++++++++++++++++++++++++++++++++++++++",
"+++++++++++++++++++++++++++++++++++++++++++++",
"+++++++++++++++++++++++++++++++++++++++++++++",
"+++++++++++++++++++++++++++++++++++++++++++++",
"+++++++++++++++++++++++++++++++++++++++++++++",
"+++++++++++++++++++++++++++++++++++++++++++++",
"+++++++++++++++++++++++++++++++++++++++++++++"};
